<svg width="730px" height="677px" viewBox="0 0 730 677" version="1.1" xmlns="http://www.w3.org/2000/svg" xmlns:xlink="http://www.w3.org/1999/xlink">
    <g id="Kit" stroke="none" stroke-width="1" fill="none" fill-rule="evenodd">
        <g id="Artboard" transform="translate(-35.000000, -62.000000)" fill="#000000" fill-rule="nonzero">
            <path d="M765,676.33116 C700.484262,669.269883 665.133172,657.795306 625.363196,632.198175 C654.527845,599.539765 718.159806,529.809648 718.159806,398.293351 C718.159806,212.052151 571.452785,62 376.138015,62 C180.823245,62 35,213.817471 35,400.94133 C35,575.707953 168.450363,739 377.905569,739 C458.329298,739 527.263923,708.98957 574.104116,678.09648 C607.687651,701.045632 642.154964,723.112125 711.973366,731.938722 C727.881356,734.586701 745.556901,736.352021 765,738.11734 L765,676.33116 Z M375.901586,127 C524.126286,127 645,239.767754 645,398.347409 C645,471.47025 618.531304,538.426104 566.476201,586 C480.894082,516.401152 464.130574,502.305182 430.603559,482.923225 C377.666166,451.207294 318.552744,436.230326 255.027873,436.230326 C194.149871,436.230326 151.799956,450.326296 121.8021,460.017274 C116.508361,442.397313 111.214622,417.729367 112.096912,378.084453 C120.919811,230.957774 234.735205,127 375.019296,127 L375.901586,127 Z M378.276888,674 C318.368421,674 197.670481,650.120603 136,520.110553 C164.19222,509.497487 195.908467,498 247.887872,498 C313.08238,498 372.990847,516.572864 431.1373,556.371859 C436.423341,561.678392 503.379863,613.859296 521,630.663317 C494.569794,650.120603 440.828375,674 379.157895,674 L378.276888,674 Z" id="Q"></path>
        </g>
    </g>
</svg>